<svg xmlns="http://www.w3.org/2000/svg" viewBox="0 0 39.75 39.75"><defs><style>.cls-1{fill:#fff;}</style></defs><title>configuracion_1</title><g id="Capa_2" data-name="Capa 2"><g id="Capa_1-2" data-name="Capa 1"><path class="cls-1" d="M38.92,23.68h0ZM16.71,38.09H23l.86-3.45a.81.81,0,0,1,.55-.58,14.87,14.87,0,0,0,2.21-.93.81.81,0,0,1,.8,0L30.52,35,35,30.52l-1.83-3.06a.82.82,0,0,1,0-.8,14.87,14.87,0,0,0,.93-2.21.81.81,0,0,1,.58-.55L38.09,23V16.71l-3.45-.86a.82.82,0,0,1-.58-.55,14.44,14.44,0,0,0-.93-2.21.83.83,0,0,1,0-.81l1.83-3L30.52,4.75,27.46,6.59a.81.81,0,0,1-.8,0,15.93,15.93,0,0,0-2.21-.92.82.82,0,0,1-.55-.59L23,1.66H16.71L15.85,5.1a.84.84,0,0,1-.55.59,15.44,15.44,0,0,0-2.21.92.81.81,0,0,1-.81,0l-3-1.84L4.76,9.23l1.83,3a.81.81,0,0,1,0,.81,15.44,15.44,0,0,0-.92,2.21.84.84,0,0,1-.59.55l-3.44.86V23l3.44.86a.82.82,0,0,1,.59.55,15.93,15.93,0,0,0,.92,2.21.79.79,0,0,1,0,.8L4.76,30.52,9.23,35l3-1.83a.83.83,0,0,1,.81,0,14.44,14.44,0,0,0,2.21.93.82.82,0,0,1,.55.58l.86,3.45Zm7,1.66H16.06a.82.82,0,0,1-.8-.63l-.91-3.64a15.54,15.54,0,0,1-1.6-.67L9.53,36.74a.83.83,0,0,1-1-.12L3.13,31.23a.83.83,0,0,1-.13-1L4.94,27a14.9,14.9,0,0,1-.68-1.61L.63,24.48a.82.82,0,0,1-.63-.8V16.06a.82.82,0,0,1,.63-.8l3.63-.91a15.65,15.65,0,0,1,.68-1.6L3,9.53a.85.85,0,0,1,.13-1L8.51,3.13a.85.85,0,0,1,1-.13l3.22,1.94a15.65,15.65,0,0,1,1.6-.68L15.26.63a.82.82,0,0,1,.8-.63h7.62a.82.82,0,0,1,.8.63l.91,3.63A14.9,14.9,0,0,1,27,4.94L30.22,3a.83.83,0,0,1,1,.13l5.39,5.38a.83.83,0,0,1,.12,1l-1.93,3.22a15.54,15.54,0,0,1,.67,1.6l3.64.91a.82.82,0,0,1,.63.8v7.62a.82.82,0,0,1-.63.8l-3.64.91A14.82,14.82,0,0,1,34.81,27l1.93,3.22a.82.82,0,0,1-.12,1l-5.39,5.39a.82.82,0,0,1-1,.12L27,34.81a14.82,14.82,0,0,1-1.61.67l-.91,3.64a.82.82,0,0,1-.8.63Z"/><path class="cls-1" d="M19.87,11.59a8.28,8.28,0,1,0,8.28,8.28,8.3,8.3,0,0,0-8.28-8.28Zm0,18.22a9.94,9.94,0,1,1,9.94-9.94,9.94,9.94,0,0,1-9.94,9.94Z"/></g></g></svg>