<svg xmlns="http://www.w3.org/2000/svg" viewBox="0 0 40.55 29.11"><defs><style>.cls-1{fill:#fff;}</style></defs><title>Estatus@PYPGrandes</title><g id="Capa_2" data-name="Capa 2"><g id="Capa_1-2" data-name="Capa 1"><path class="cls-1" d="M27.62,0H25.45a2.1,2.1,0,0,0-2,1.46,43.34,43.34,0,0,1-9.52,4.06,8.36,8.36,0,1,0-8,14.21L8,27.56a2.09,2.09,0,0,0,2,1.55h4.59a1,1,0,0,0,0-2h-.31l-2.15-7.89a8.59,8.59,0,0,0,1.6-1.07,43.78,43.78,0,0,1,9.69,4.12,2.11,2.11,0,0,0,2,1.46h2.17a2.11,2.11,0,0,0,2.1-2.1V2.1A2.1,2.1,0,0,0,27.62,0Zm-18,17.56a5.7,5.7,0,0,1-1.25.14,6.12,6.12,0,0,1-1-.09,5.83,5.83,0,0,1-2.35-.93,3.75,3.75,0,0,1-.51-.38,6,6,0,0,1-1.63-2.17,5.13,5.13,0,0,1-.27-.78,5.72,5.72,0,0,1,0-3.21,4.23,4.23,0,0,1,.19-.57A5.79,5.79,0,0,1,4.29,7.42a5.89,5.89,0,0,1,6.55-1.08A6,6,0,0,1,9.61,17.56Zm2.6,9.52H10A.06.06,0,0,1,10,27L8.08,20.09l.28,0a8.27,8.27,0,0,0,1.88-.22ZM27.69,21.6a.07.07,0,0,1-.07.06H25.45a.07.07,0,0,1-.07-.06l-2-1.75a45.9,45.9,0,0,0-8.08-3.39,8.38,8.38,0,0,0,.11-9.26,46.22,46.22,0,0,0,8-3.35l2-1.75A.07.07,0,0,1,25.45,2h2.17a.07.07,0,0,1,.07.07Z"/><path class="cls-1" d="M39.53,10.83H33a1,1,0,0,0,0,2h6.5a1,1,0,1,0,0-2Z"/><path class="cls-1" d="M33,8.53a.93.93,0,0,0,.45-.11l4.33-2.16a1,1,0,1,0-.91-1.82L32.58,6.61A1,1,0,0,0,32.13,8,1,1,0,0,0,33,8.53Z"/><path class="cls-1" d="M37.82,17.44l-4.33-2.17a1,1,0,0,0-1.36.46,1,1,0,0,0,.45,1.36l4.33,2.17a1.06,1.06,0,0,0,.46.1,1,1,0,0,0,.45-1.92Z"/><path class="cls-1" d="M11.13,10.54H9.57V9a1.26,1.26,0,0,0,0-.28A1.2,1.2,0,0,0,7.16,9v1.56H5.59a1.2,1.2,0,0,0-1.2,1.2,1.19,1.19,0,0,0,.55,1,1.14,1.14,0,0,0,.65.2H7.16v1.64a1.2,1.2,0,0,0,2.31.4,1.29,1.29,0,0,0,.1-.48V13h1.56a1.21,1.21,0,1,0,0-2.41Z"/></g></g></svg>