<svg xmlns="http://www.w3.org/2000/svg" viewBox="0 0 41.45 35.42"><defs><style>.cls-1{fill:#fff;}</style></defs><title>Fecha@PYPGrandes</title><g id="Capa_2" data-name="Capa 2"><g id="Capa_1-2" data-name="Capa 1"><path class="cls-1" d="M34.71,16.07V5.83a3.24,3.24,0,0,0-3.24-3.25H28.35V1.25a1.25,1.25,0,0,0-2.5,0V2.58H9.1V1.25a1.25,1.25,0,1,0-2.49,0V2.58H3.24A3.26,3.26,0,0,0,0,5.83V28a3.27,3.27,0,0,0,1,2.29,3.23,3.23,0,0,0,2.29,1H23.39A9.93,9.93,0,1,0,34.71,16.07Zm-3.2,17a7.59,7.59,0,0,1-5-1.89,7.84,7.84,0,0,1-1.88-2.49,7.59,7.59,0,0,1,6.88-10.82c.24,0,.47,0,.71,0a7.48,7.48,0,0,1,2.49.68,7.6,7.6,0,0,1-3.2,14.49ZM2.49,5.83a.73.73,0,0,1,.22-.53.77.77,0,0,1,.53-.22H6.61V6.39a1.25,1.25,0,1,0,2.49,0V5.08H25.85V6.39a1.25,1.25,0,1,0,2.5,0V5.08h3.12A.77.77,0,0,1,32,5.3a.73.73,0,0,1,.22.53v4.35H2.49ZM3.24,28.7A.75.75,0,0,1,2.49,28V12.67H32.22v2.9c-.24,0-.47,0-.71,0a10,10,0,0,0-9.94,10,9.8,9.8,0,0,0,.54,3.22Z"/><path class="cls-1" d="M34.78,22.07l-.07,0a1,1,0,0,0-.59.39l-1.9,2.69-.28.39a.38.38,0,0,1-.34.16l-3.73-.29a1.06,1.06,0,0,0-.73.24,1,1,0,0,0-.35.69,1,1,0,0,0,.93,1.08l4.47.34h.08a1,1,0,0,0,.81-.41l1.63-2.24,1.06-1.47a1,1,0,0,0,.18-.75,1,1,0,0,0-1.17-.85Z"/></g></g></svg>