<svg xmlns="http://www.w3.org/2000/svg" viewBox="0 0 48.87 48.84"><defs><style>.cls-1{fill:none;stroke:#fff;stroke-linejoin:round;stroke-width:2px;}</style></defs><title>push@PYPGrandes</title><g id="Capa_2" data-name="Capa 2"><g id="Capa_1-2" data-name="Capa 1"><path class="cls-1" d="M17,6.68H4a3,3,0,0,0-3,3V44.81a3,3,0,0,0,3,3H21.9a3,3,0,0,0,3-3V25M1.28,37.66,24.66,38M1.28,11.48,17,11.77"/><path class="cls-1" d="M14.83,42.81A1.87,1.87,0,1,1,13,41,1.87,1.87,0,0,1,14.83,42.81Z"/><path class="cls-1" d="M44.36,21.83H28.82l-6.19,5v-5H20.46A3.52,3.52,0,0,1,17,18.31V4.51A3.51,3.51,0,0,1,20.46,1h23.9a3.51,3.51,0,0,1,3.51,3.51v13.8A3.52,3.52,0,0,1,44.36,21.83Z"/><line class="cls-1" x1="24.66" y1="8.06" x2="40.11" y2="8.06"/><line class="cls-1" x1="24.66" y1="14.88" x2="40.11" y2="14.88"/></g></g></svg>