<svg xmlns="http://www.w3.org/2000/svg" viewBox="0 0 99.02 46.76"><defs><style>.cls-1{fill:#fff;}</style></defs><title>Usuarios impactados@PYPGrandes</title><g id="Capa_2" data-name="Capa 2"><g id="Capa_1-2" data-name="Capa 1"><path class="cls-1" d="M84.69,29.27a15,15,0,0,0,6.11-7.2,14,14,0,0,0,1.09-5.95,15.2,15.2,0,0,0-30.39.23,15,15,0,0,0,7.22,12.92A23.61,23.61,0,0,0,54.48,44.38a1.86,1.86,0,0,0,1.79,2.38,1.88,1.88,0,0,0,1.78-1.39,19.5,19.5,0,0,1,37.31,0,1.89,1.89,0,0,0,1.79,1.39A1.87,1.87,0,0,0,99,44.38,22.85,22.85,0,0,0,84.69,29.27ZM65.3,16.35a11.41,11.41,0,1,1,11.41,11.4A11.44,11.44,0,0,1,65.3,16.35Z"/><path class="cls-1" d="M47.57,8A1.48,1.48,0,0,0,48.88,8L56.5,4.65A1.47,1.47,0,0,0,55.31,2L47.7,5.35A1.46,1.46,0,0,0,47.57,8Z"/><path class="cls-1" d="M47.42,16.6a1.44,1.44,0,0,0,.87.29h0l8.33-.06a1.47,1.47,0,0,0,0-2.93h0L48.28,14a1.46,1.46,0,0,0-.86,2.64Z"/><path class="cls-1" d="M57,26.23h0L48.9,23.62a1.57,1.57,0,0,0-.6-.12,1.47,1.47,0,0,0-.59,2.82l.31.17,8,2.59A1.46,1.46,0,0,0,57.21,29a1.44,1.44,0,0,0,.74-.88A1.48,1.48,0,0,0,57.87,27,1.5,1.5,0,0,0,57,26.23Z"/><path class="cls-1" d="M44.17,5V4.9a.57.57,0,0,0,0-.13l0-3.32A1.42,1.42,0,0,0,43.59.34,1.48,1.48,0,0,0,42.39,0L21.26,5.42,13,5.54a6.47,6.47,0,0,0-6.17,4.94l0,.15-2.08,0a4.79,4.79,0,0,0-3.28,8.23,4.65,4.65,0,0,0,1,.75,4.89,4.89,0,0,0,2.37.61H7l0,.15a6.18,6.18,0,0,0,3,3.86,6.29,6.29,0,0,0,3.25.82l1.87,0,.09,6.87A4.8,4.8,0,0,0,20,36.63h0a4.82,4.82,0,0,0,3.38-1.45,4.76,4.76,0,0,0,1.35-3.41l-.07-6.34.25.05,17.8,4A1.47,1.47,0,0,0,44.44,28L44.22,5.39A1.2,1.2,0,0,0,44.17,5ZM4.78,17.27h0a1.87,1.87,0,0,1-1.3-.53,1.84,1.84,0,0,1-.57-1.3,1.86,1.86,0,0,1,1.85-1.9l1.87,0,.05,3.73ZM21.31,33.16h0a1.88,1.88,0,0,1-1.32.55h0a1.87,1.87,0,0,1-1.86-1.82L18,25l3.44,0,.26.15.12,6.7A1.87,1.87,0,0,1,21.31,33.16Zm.19-11.23-8.3.12a3.52,3.52,0,0,1-3.58-3.48l-.1-6.65A3.55,3.55,0,0,1,13,8.48l8.69-.09,19.58-5.2,0,1.62a1.29,1.29,0,0,0,.06.36v.08a.53.53,0,0,0,0,.17l.21,21Z"/></g></g></svg>