<svg xmlns="http://www.w3.org/2000/svg" viewBox="0 0 50.01 41.38"><defs><style>.cls-1{fill:#fff;}</style></defs><title>canales de comunicacion@PYPGrandes</title><g id="Capa_2" data-name="Capa 2"><g id="Capa_1-2" data-name="Capa 1"><path class="cls-1" d="M45.77,6.56H23.32v-2A4.52,4.52,0,0,0,18.81,0H4.51A4.51,4.51,0,0,0,0,4.51v8.26A4.52,4.52,0,0,0,2.88,17V37.14a4.24,4.24,0,0,0,4.24,4.24H45.77A4.24,4.24,0,0,0,50,37.14V10.8A4.24,4.24,0,0,0,45.77,6.56ZM2.41,12.77V4.51a2.1,2.1,0,0,1,2.1-2.1h14.3a2.1,2.1,0,0,1,2.1,2.1v8.26a2.1,2.1,0,0,1-2.1,2.1h-1.3v3l-3.7-3H4.51a2.12,2.12,0,0,1-2.1-2.1ZM47.6,37.14A1.83,1.83,0,0,1,45.77,39H7.12a1.83,1.83,0,0,1-1.83-1.83V17.28H13l3,2.48a2.46,2.46,0,0,0,1.53.54,2.49,2.49,0,0,0,1-.23,2.42,2.42,0,0,0,1.38-2.18v-.75a4.53,4.53,0,0,0,3.4-4.37V9H45.77A1.83,1.83,0,0,1,47.6,10.8Z"/><circle class="cls-1" cx="42.96" cy="23.95" r="1.64"/><path class="cls-1" d="M7.05,7.84H16.3a1.2,1.2,0,0,0,1.2-1.2V6.56a1.21,1.21,0,0,0-1.2-1.13H7.05a1.21,1.21,0,0,0-1.2,1.21.45.45,0,0,0,0,.11A1.2,1.2,0,0,0,7.05,7.84Z"/><path class="cls-1" d="M7.05,11.92H16.3a1.21,1.21,0,0,0,0-2.41H7.05a1.21,1.21,0,0,0,0,2.41Z"/><path class="cls-1" d="M44.17,28A1.21,1.21,0,0,0,43,29.21v4.84H9.52c0-3.18,0-11.07,0-12.91a1.2,1.2,0,0,0-1.21-1.2h0a1.2,1.2,0,0,0-1.2,1.21c0,5.32,0,13.44,0,14a1.22,1.22,0,0,0,.32.91,1.2,1.2,0,0,0,.88.39H44.17a1.21,1.21,0,0,0,1.2-1.21v-6A1.21,1.21,0,0,0,44.17,28Z"/><path class="cls-1" d="M44.17,11.24H25.28a1.21,1.21,0,1,0,0,2.41H43v4.84a1.21,1.21,0,1,0,2.41,0v-6A1.2,1.2,0,0,0,44.17,11.24Z"/></g></g></svg>