<svg xmlns="http://www.w3.org/2000/svg" xmlns:xlink="http://www.w3.org/1999/xlink" viewBox="0 0 17.73 15.42"><defs><style>.cls-1{fill:url(#Degradado_sin_nombre_39);}</style><linearGradient id="Degradado_sin_nombre_39" y1="7.71" x2="17.73" y2="7.71" gradientUnits="userSpaceOnUse"><stop offset="0.17" stop-color="#fff"/><stop offset="0.91" stop-color="#fff"/></linearGradient></defs><title>Mensaje@PYPGrandes</title><g id="Capa_2" data-name="Capa 2"><g id="Capa_1-2" data-name="Capa 1"><path class="cls-1" d="M14.36,1.76A1.62,1.62,0,0,1,16,3.38V9.72a1.61,1.61,0,0,1-1.61,1.61h-1v2.32l-2.84-2.32H3.38A1.62,1.62,0,0,1,1.76,9.72V3.38A1.63,1.63,0,0,1,3.38,1.76h11m0-1.76h-11A3.39,3.39,0,0,0,0,3.38V9.72A3.39,3.39,0,0,0,3.38,13.1H9.89L12.25,15a1.76,1.76,0,0,0,1.11.4,1.83,1.83,0,0,0,.76-.17,1.79,1.79,0,0,0,1-1.6V13a3.38,3.38,0,0,0,2.61-3.29V3.38A3.38,3.38,0,0,0,14.36,0Z"/></g></g></svg>