<svg xmlns="http://www.w3.org/2000/svg" viewBox="0 0 26.3 32.71"><defs><style>.cls-1{fill:#fff;}</style></defs><title>clicURL@PYPGrandes</title><g id="Capa_2" data-name="Capa 2"><g id="Capa_1-2" data-name="Capa 1"><path class="cls-1" d="M19,32.71a3.89,3.89,0,0,1-3.49-2.16L13.56,27,12.46,29a.83.83,0,0,1-.09.16A3.48,3.48,0,0,1,9.6,30.54h0a3.87,3.87,0,0,1-2.67-1.15,4,4,0,0,1-1.16-2.81V10a3.84,3.84,0,0,1,6.28-3l8.41,6.27a1.28,1.28,0,1,1-1.52,2.05L10.47,9.1l-.06,0a1.28,1.28,0,0,0-2.1,1V26.58A1.38,1.38,0,0,0,9.59,28h0a1,1,0,0,0,.66-.24l2.15-4.12a1.28,1.28,0,0,1,1.13-.68h0a1.27,1.27,0,0,1,1.12.67l3.08,5.76,0,.05a1.3,1.3,0,0,0,2.4-.12,1.33,1.33,0,0,0,0-1L17,22.79a1.27,1.27,0,0,1,1.12-1.9h4.38a1.26,1.26,0,0,0,1.11-.8,1.3,1.3,0,0,0-.25-1.39,1.28,1.28,0,1,1,1.86-1.76,3.86,3.86,0,0,1-2.65,6.5H20.33l2.06,3.67,0,.06A3.85,3.85,0,0,1,19,32.71ZM7.2,5a1.29,1.29,0,0,0,.5-1.74l-1.08-2A1.28,1.28,0,0,0,4.37,2.53l1.09,2A1.27,1.27,0,0,0,7.2,5ZM4.49,7.92a1.27,1.27,0,0,0-.65-1.68l-2-.89a1.28,1.28,0,0,0-1,2.34l2,.89a1.17,1.17,0,0,0,.51.11,1.28,1.28,0,0,0,1.17-.77Zm8-4.13.7-2.11A1.27,1.27,0,0,0,12.35.07a1.26,1.26,0,0,0-1.61.8L10,3a1.28,1.28,0,0,0,.81,1.62,1.47,1.47,0,0,0,.41.07,1.28,1.28,0,0,0,1.21-.88ZM15.84,7l1.73-1.27A1.28,1.28,0,0,0,16,3.7L14.32,5A1.28,1.28,0,0,0,15.84,7Zm-14,7.19,1.92-.76a1.28,1.28,0,0,0-.95-2.38l-1.92.77a1.28,1.28,0,0,0,.48,2.46,1.35,1.35,0,0,0,.47-.09Z"/></g></g></svg>