<svg xmlns="http://www.w3.org/2000/svg" viewBox="0 0 32.13 33.31"><defs><style>.cls-1,.cls-2{fill:none;stroke:#fff;stroke-linecap:round;}.cls-1{stroke-miterlimit:10;stroke-width:1.93px;}.cls-2{stroke-linejoin:round;stroke-width:1.82px;}</style></defs><title>Entregados@PYPGrandes</title><g id="Capa_2" data-name="Capa 2"><g id="Capa_1-2" data-name="Capa 1"><path class="cls-1" d="M4.33,9.35H3.62A2.66,2.66,0,0,0,1,12V29.7a2.66,2.66,0,0,0,2.66,2.65H28.51a2.65,2.65,0,0,0,2.65-2.65V12h0a2.65,2.65,0,0,0-2.65-2.65H26.43m-24.86,1L16.06,25.71,30.44,10.19M1.57,31.36l11.32-9m6,.41,11.32,9"/><polyline class="cls-2" points="22.58 7.31 17.03 12.01 17.03 8.14"/><polyline class="cls-2" points="13.99 7.31 8.44 12.01 8.44 8.14"/><path class="cls-1" d="M5.14,14.12V3.23A2.27,2.27,0,0,1,7.4,1H24.09a2.27,2.27,0,0,1,2.26,2.27V14.61"/></g></g></svg>