<svg xmlns="http://www.w3.org/2000/svg" viewBox="0 0 28 24.09"><defs><style>.cls-1{fill:none;stroke:#fff;stroke-linecap:round;stroke-miterlimit:10;stroke-width:1.93px;}</style></defs><title>enviados @PYPGrandes</title><g id="Capa_2" data-name="Capa 2"><g id="Capa_1-2" data-name="Capa 1"><path class="cls-1" d="M15.68,17.1c.12,1.62,1.05,2.14,2.25,1.16,2.88-2.38,5.68-4.87,8.5-7.32a1.28,1.28,0,0,0-.05-2.2C23.6,6.34,20.85,3.9,18,1.55,16.72.46,15.8.92,15.68,2.65c-.08,1.11,0,2.24,0,3.37-2.66.37-5.12.61-7.52,1.09-3.44.7-6.07,2.51-6.9,6.15A9.47,9.47,0,0,0,4.4,22.84h0a1.16,1.16,0,0,0,1.88-.93v-.15c-.07-.86-.35-1.7-.42-2.56a4.55,4.55,0,0,1,3.27-5.12,57.12,57.12,0,0,1,6.52-1.17C15.66,14.71,15.59,15.91,15.68,17.1Z"/><path class="cls-1" d="M15.66,12.92c0,1.79-.07,3,0,4.18.12,1.62,1.05,2.14,2.25,1.16,2.88-2.38,5.68-4.87,8.5-7.32a1.28,1.28,0,0,0-.05-2.2C23.6,6.34,20.85,3.9,18,1.55,16.72.46,15.8.92,15.68,2.65c-.08,1.11,0,2.24,0,3.37-2.66.37-5.12.61-7.52,1.09-3.44.7-6.07,2.51-6.9,6.15A9.47,9.47,0,0,0,4.4,22.84h0a1.16,1.16,0,0,0,1.88-.93v-.15c-.07-.86-.35-1.7-.42-2.56a4.55,4.55,0,0,1,3.27-5.12A57.12,57.12,0,0,1,15.66,12.92Z"/></g></g></svg>