<svg height="457pt" viewBox="-62 0 457 457.14286" width="457pt" xmlns="http://www.w3.org/2000/svg"><path d="m302.519531 0h-271.179687c-17.242188 0-31.2695315 13.988281-31.2695315 31.179688v394.785156c0 17.191406 14.0273435 31.179687 31.2695315 31.179687h271.179687c17.238281 0 31.265625-13.988281 31.265625-31.179687v-394.785156c0-17.191407-14.027344-31.179688-31.265625-31.179688zm-271.179687 18.285156h271.179687c7.160157 0 12.980469 5.785156 12.980469 12.894532v29.390624h-297.144531v-29.390624c0-7.109376 5.824219-12.894532 12.984375-12.894532zm284.160156 60.570313v299.429687h-297.144531v-299.429687zm-12.980469 360h-271.179687c-7.160156 0-12.984375-5.785157-12.984375-12.890625v-29.394532h297.144531v29.394532c0 7.105468-5.820312 12.890625-12.980469 12.890625zm0 0"/><path d="m178.355469 408.570312h-22.855469c-5.054688 0-9.144531 4.09375-9.144531 9.144532 0 5.046875 4.089843 9.140625 9.144531 9.140625h22.855469c5.054687 0 9.144531-4.09375 9.144531-9.140625 0-5.050782-4.089844-9.144532-9.144531-9.144532zm0 0"/><path d="m154.867188 44.191406h62.855468c5.054688 0 9.144532-4.09375 9.144532-9.140625 0-5.050781-4.089844-9.144531-9.144532-9.144531h-62.855468c-5.054688 0-9.144532 4.09375-9.144532 9.144531 0 5.046875 4.089844 9.140625 9.144532 9.140625zm0 0"/><path d="m107.679688 38.582031c.277343.546875.550781 1.003907.820312 1.550781.367188.460938.730469.917969 1.195312 1.375.367188.457032.824219.824219 1.367188 1.09375.457031.367188 1.007812.644532 1.554688.917969.550781.179688 1.1875.363281 1.738281.457031.546875.179688 1.1875.179688 1.734375.179688 2.472656 0 4.847656-.910156 6.492187-2.648438.460938-.457031.828125-.914062 1.097657-1.375.363281-.546874.640624-1.003906.917968-1.550781.179688-.550781.367188-1.1875.457032-1.738281.175781-.636719.175781-1.1875.175781-1.832031 0-2.375-.910157-4.75-2.648438-6.394531-3.375-3.472657-9.511719-3.472657-12.886719 0-1.738281 1.644531-2.75 4.019531-2.75 6.394531 0 .644531.097657 1.195312.1875 1.832031.179688.550781.367188 1.1875.546876 1.738281zm0 0"/><path d="m175.625 263.75 3.582031-122.796875h-24.558593l3.582031 122.796875zm0 0"/><path d="m166.917969 284.464844c-8.6875 0-15.082031 6.65625-15.082031 15.863281 0 8.957031 6.125 15.863281 15.082031 15.863281 9.207031 0 15.101562-6.90625 15.101562-15.863281 0-9.207031-5.894531-15.863281-15.101562-15.863281zm0 0"/></svg>
