<svg xmlns="http://www.w3.org/2000/svg" viewBox="0 0 35.42 15.96"><defs><style>.cls-1{fill:none;stroke:#fff;stroke-linecap:round;stroke-miterlimit:10;stroke-width:2px;}</style></defs><title>intentos@PYPGrandes</title><g id="Capa_2" data-name="Capa 2"><g id="Capa_1-2" data-name="Capa 1"><path class="cls-1" d="M27.27,11.17c.08,1,.66,1.34,1.42.72,1.82-1.49,3.58-3.06,5.36-4.61.53-.46.48-.93,0-1.38-1.75-1.52-3.48-3.05-5.26-4.53-.82-.69-1.4-.4-1.48.69-.05.7,0,1.41,0,2.12-1.68.24-3.22.39-4.74.69a5,5,0,0,0-4.35,3.88,6,6,0,0,0,2,6h0a.73.73,0,0,0,1.19-.59s0-.06,0-.09c0-.54-.22-1.07-.26-1.61a2.86,2.86,0,0,1,2.06-3.23,35.77,35.77,0,0,1,4.11-.74C27.26,9.66,27.21,10.42,27.27,11.17Z"/><path class="cls-1" d="M27.26,8.53c0,1.13-.05,1.89,0,2.64.08,1,.66,1.34,1.42.72,1.82-1.49,3.58-3.06,5.36-4.61.53-.46.48-.93,0-1.38-1.75-1.52-3.48-3.05-5.26-4.53-.82-.69-1.4-.4-1.48.69-.05.7,0,1.41,0,2.12-1.68.24-3.22.39-4.74.69a5,5,0,0,0-4.35,3.88,6,6,0,0,0,2,6h0a.73.73,0,0,0,1.19-.59s0-.06,0-.09c0-.54-.22-1.07-.26-1.61a2.86,2.86,0,0,1,2.06-3.23A35.77,35.77,0,0,1,27.26,8.53Z"/><path class="cls-1" d="M10.27,11.17c.08,1,.66,1.34,1.42.72,1.82-1.49,3.58-3.06,5.36-4.61.53-.46.47-.93,0-1.38-1.75-1.52-3.48-3.05-5.26-4.53-.82-.69-1.4-.4-1.48.69,0,.7,0,1.41,0,2.12-1.68.24-3.22.39-4.74.69A5,5,0,0,0,1.17,8.75a6,6,0,0,0,2,6h0a.73.73,0,0,0,1.19-.59s0-.06,0-.09c0-.54-.22-1.07-.26-1.61A2.86,2.86,0,0,1,6.15,9.27a35.77,35.77,0,0,1,4.11-.74C10.26,9.66,10.21,10.42,10.27,11.17Z"/><path class="cls-1" d="M10.26,8.53c0,1.13,0,1.89,0,2.64.08,1,.66,1.34,1.42.72,1.82-1.49,3.58-3.06,5.36-4.61.53-.46.47-.93,0-1.38-1.75-1.52-3.48-3.05-5.26-4.53-.82-.69-1.4-.4-1.48.69,0,.7,0,1.41,0,2.12-1.68.24-3.22.39-4.74.69A5,5,0,0,0,1.17,8.75a6,6,0,0,0,2,6h0a.73.73,0,0,0,1.19-.59s0-.06,0-.09c0-.54-.22-1.07-.26-1.61A2.86,2.86,0,0,1,6.15,9.27,35.77,35.77,0,0,1,10.26,8.53Z"/></g></g></svg>