<svg xmlns="http://www.w3.org/2000/svg" viewBox="0 0 23.94 35.09"><defs><style>.cls-1,.cls-2{fill:none;stroke:#fff;stroke-linecap:round;}.cls-1{stroke-miterlimit:10;stroke-width:1.93px;}.cls-2{stroke-linejoin:round;stroke-width:2.12px;}</style></defs><title>leidos@PYPGrandes</title><g id="Capa_2" data-name="Capa 2"><g id="Capa_1-2" data-name="Capa 1"><path class="cls-1" d="M3.69,20.89V31.68a2.44,2.44,0,0,0,2.44,2.44h14.4A2.44,2.44,0,0,0,23,31.68v-5l-.2-23.35A2.4,2.4,0,0,0,20.37,1H6.13A2.45,2.45,0,0,0,3.69,3.4V11m.23,14.91,18.83.24M3.92,4.84l18.83.23"/><path class="cls-1" d="M14.83,30.08a1.5,1.5,0,1,1-1.5-1.51A1.5,1.5,0,0,1,14.83,30.08Z"/><polyline class="cls-2" points="18.61 12.15 11.06 18.54 11.06 14.05"/><polyline class="cls-2" points="8.61 12.15 1.06 18.54 1.06 14.05"/></g></g></svg>