<svg xmlns="http://www.w3.org/2000/svg" viewBox="0 0 25.11 25.06"><defs><style>.cls-1,.cls-2{fill:none;stroke:#fff;stroke-linecap:round;stroke-width:2px;}.cls-1{stroke-linejoin:round;}.cls-2{stroke-miterlimit:10;}</style></defs><title>realizados@PYPGrandes</title><g id="Capa_2" data-name="Capa 2"><g id="Capa_1-2" data-name="Capa 1"><path class="cls-1" d="M23.59,19.24,20,15.67a1.85,1.85,0,0,0-2.62.05l-1.8,1.8-.35-.2a17.85,17.85,0,0,1-4.33-3.13A18,18,0,0,1,7.79,9.86c-.07-.12-.13-.24-.2-.35L8.8,8.31l.59-.6a1.85,1.85,0,0,0,0-2.62L5.87,1.52a1.85,1.85,0,0,0-2.62.05l-1,1,0,0a5.65,5.65,0,0,0-.83,1.46,6.42,6.42,0,0,0-.37,1.48C.6,9.46,2.39,13,7.23,17.87c6.7,6.7,12.1,6.2,12.33,6.17a6.13,6.13,0,0,0,1.49-.37,5.76,5.76,0,0,0,1.45-.83l0,0,1-1A1.86,1.86,0,0,0,23.59,19.24Z"/><path class="cls-2" d="M9.22,9.27a39.69,39.69,0,0,1,5.62.26c0,1.13,0,1.89,0,2.64.08,1,.66,1.34,1.42.72,1.82-1.49,3.58-3.06,5.36-4.61.53-.46.48-.93,0-1.38-1.75-1.52-3.48-3.05-5.26-4.53-.82-.69-1.4-.4-1.48.69,0,.7,0,1.41,0,2.12C13.05,5,9.1,4.87,9.1,4.87"/></g></g></svg>