<svg xmlns="http://www.w3.org/2000/svg" viewBox="0 0 41.78 41.69"><defs><style>.cls-1{fill:none;stroke:#fff;stroke-linejoin:round;stroke-width:2px;}</style></defs><title>llamadas_1@PYPGrandes</title><g id="Capa_2" data-name="Capa 2"><g id="Capa_1-2" data-name="Capa 1"><path class="cls-1" d="M39.89,32.39l-6.14-6.14a3.21,3.21,0,0,0-4.52.08l-3.09,3.1-.62-.34a30.86,30.86,0,0,1-7.44-5.38,31.47,31.47,0,0,1-5.4-7.46q-.16-.32-.33-.6l2.08-2.07,1-1A3.19,3.19,0,0,0,15.53,8L9.39,1.89A3.2,3.2,0,0,0,4.87,2L3.14,3.72l0,0A10,10,0,0,0,1.76,6.28a10.44,10.44,0,0,0-.63,2.55c-.82,6.73,2.26,12.88,10.6,21.22C23.26,41.58,32.55,40.7,33,40.66A10.26,10.26,0,0,0,38,38.6l0,0,1.76-1.72A3.21,3.21,0,0,0,39.89,32.39Z"/></g></g></svg>