<svg xmlns="http://www.w3.org/2000/svg" viewBox="0 0 31.41 34.4"><defs><style>.cls-1{fill:none;stroke:#fff;stroke-linejoin:round;stroke-width:1.5px;}</style></defs><title>recibidas</title><g id="Capa_2" data-name="Capa 2"><g id="Capa_1-2" data-name="Capa 1"><path class="cls-1" d="M8.24,5.66,7.06,4.48a2.41,2.41,0,0,0-3.4.06L2.36,5.85l0,0A7.32,7.32,0,0,0,1.32,7.78,7.79,7.79,0,0,0,.85,9.7c-.61,5.05,1.7,9.68,8,16,8.67,8.66,15.65,8,16,8a7.82,7.82,0,0,0,1.93-.49,7.37,7.37,0,0,0,1.88-1.06l0,0,1.32-1.29a2.41,2.41,0,0,0,.06-3.4l-4.62-4.62a2.4,2.4,0,0,0-3.39.07l-2.33,2.32-.46-.25a23.34,23.34,0,0,1-5.6-4.05,23.08,23.08,0,0,1-4.05-5.61c-.09-.15-.17-.3-.25-.45l1.56-1.56.77-.77"/><path class="cls-1" d="M15.23,9.82a44.14,44.14,0,0,1,4.95.89,3.44,3.44,0,0,1,2.48,3.89c-.05.65-.26,1.29-.31,1.94a.41.41,0,0,0,0,.11.88.88,0,0,0,1.43.71h0a7.21,7.21,0,0,0,2.4-7.27C25.54,7.32,23.55,6,20.94,5.42c-1.82-.37-3.68-.55-5.71-.84,0-.85,0-1.7,0-2.55C15.13.72,14.43.37,13.44,1.2,11.3,3,9.21,4.83,7.1,6.65a1,1,0,0,0,0,1.67c2.14,1.86,4.27,3.75,6.46,5.55.9.74,1.61.36,1.7-.87C15.29,12.09,15.23,11.18,15.23,9.82Z"/><path class="cls-1" d="M15.23,9.82c0,1.36.06,2.27,0,3.18-.09,1.23-.8,1.61-1.7.87-2.19-1.8-4.32-3.69-6.46-5.55a1,1,0,0,1,0-1.67C9.21,4.83,11.3,3,13.44,1.2c1-.83,1.69-.48,1.78.83.06.85,0,1.7,0,2.55,2,.29,3.89.47,5.71.84,2.61.53,4.6,1.9,5.24,4.66a7.21,7.21,0,0,1-2.4,7.27h0a.88.88,0,0,1-1.43-.71.41.41,0,0,1,0-.11c0-.65.26-1.29.31-1.94a3.44,3.44,0,0,0-2.48-3.89A44.14,44.14,0,0,0,15.23,9.82Z"/></g></g></svg>