<svg xmlns="http://www.w3.org/2000/svg" viewBox="0 0 57.75 36.42"><defs><style>.cls-1{fill:#fff;}</style></defs><title>Recurso 50@PYPGrandes</title><g id="Capa_2" data-name="Capa 2"><g id="Capa_1-2" data-name="Capa 1"><path class="cls-1" d="M47.15,16.51a1.5,1.5,0,0,0,.87.28h0l8.29-.06a1.45,1.45,0,0,0,1.44-1.47,1.46,1.46,0,0,0-1.46-1.44h0L48,13.88a1.46,1.46,0,0,0-.85,2.63Z"/><path class="cls-1" d="M56.66,26.08h0l-8-2.59a1.41,1.41,0,0,0-.6-.13,1.46,1.46,0,0,0-.58,2.8l.3.18,8,2.57a1.49,1.49,0,1,0,.92-2.83Z"/><path class="cls-1" d="M47.3,7.92A1.49,1.49,0,0,0,48.6,8l7.57-3.36A1.45,1.45,0,1,0,55,2L47.42,5.32a1.46,1.46,0,0,0-.74,1.92A1.51,1.51,0,0,0,47.3,7.92Z"/><path class="cls-1" d="M43.92,5V4.87s0-.08,0-.13l0-3.3a1.46,1.46,0,0,0-.53-1.1A1.49,1.49,0,0,0,42.15,0l-21,5.37-8.2.12a6.43,6.43,0,0,0-6.13,4.91l0,.15H4.72a4.77,4.77,0,0,0-3.27,8.19,5.23,5.23,0,0,0,1,.75,4.88,4.88,0,0,0,2.36.61h0l2.06,0,0,.15a6.26,6.26,0,0,0,1.63,2.83,6.14,6.14,0,0,0,1.37,1,6.18,6.18,0,0,0,3.22.82l1.87,0,.09,6.84a4.76,4.76,0,0,0,4.76,4.69H20a4.76,4.76,0,0,0,4.7-4.83l-.07-6.31.25.06,17.69,4a1.45,1.45,0,0,0,1.67-1.45L44,5.36A1.72,1.72,0,0,0,43.92,5ZM4.75,17.17h0a1.87,1.87,0,0,1-1.3-.53,1.85,1.85,0,0,1-.57-1.29A1.86,1.86,0,0,1,4.7,13.46l1.86,0,.06,3.71ZM21.19,33h0a1.89,1.89,0,0,1-1.31.54h0A1.87,1.87,0,0,1,18,31.71l-.09-6.84,3.43,0,.26.14.11,6.67A1.83,1.83,0,0,1,21.19,33Zm.19-11.16-8.26.11a3.5,3.5,0,0,1-3.56-3.45l-.09-6.62a3.52,3.52,0,0,1,3.41-3.42l8.63-.09L41,3.17l0,1.61a1.24,1.24,0,0,0,.05.36v.08a1.16,1.16,0,0,0,0,.17l.21,20.85Z"/></g></g></svg>