<svg xmlns="http://www.w3.org/2000/svg" viewBox="0 0 55.67 51.18"><defs><style>.cls-1{fill:none;stroke:#fff;stroke-linejoin:round;stroke-width:2px;}</style></defs><title>sms respuesta@PYPGrandes</title><g id="Capa_2" data-name="Capa 2"><g id="Capa_1-2" data-name="Capa 1"><path class="cls-1" d="M27,12.48H49.89a4.78,4.78,0,0,1,4.78,4.78V38.53a4.78,4.78,0,0,1-4.78,4.78H28.74l-8.41,6.87V43.31h-3a4.78,4.78,0,0,1-4.78-4.78V14.3"/><line class="cls-1" x1="20.59" y1="32.99" x2="46.68" y2="32.99"/><line class="cls-1" x1="30.1" y1="22.09" x2="46.68" y2="22.09"/><path class="cls-1" d="M12.47,13.06a57.29,57.29,0,0,1,6.58,1.19c2.39.71,3.49,2.66,3.3,5.16-.06.87-.35,1.72-.42,2.59v.14a1.17,1.17,0,0,0,1.9.95v0A9.55,9.55,0,0,0,27,13.41c-.83-3.68-3.49-5.5-7-6.21-2.42-.49-4.9-.72-7.59-1.1,0-1.14.07-2.27,0-3.4C12.33,1,11.4.5,10.09,1.59,7.24,4,4.46,6.42,1.66,8.85a1.3,1.3,0,0,0-.06,2.22c2.85,2.47,5.67,5,8.59,7.38,1.2,1,2.14.47,2.26-1.16C12.54,16.08,12.47,14.87,12.47,13.06Z"/><path class="cls-1" d="M12.47,13.06c0,1.81.07,3,0,4.23-.12,1.63-1.06,2.15-2.26,1.16-2.92-2.4-5.74-4.91-8.59-7.38a1.3,1.3,0,0,1,.06-2.22C4.46,6.42,7.24,4,10.09,1.59,11.4.5,12.33,1,12.46,2.7c.08,1.13,0,2.26,0,3.4,2.69.38,5.17.61,7.59,1.1,3.47.71,6.13,2.53,7,6.21a9.55,9.55,0,0,1-3.18,9.66v0a1.17,1.17,0,0,1-1.9-.95V22c.07-.87.36-1.72.42-2.59.19-2.5-.91-4.45-3.3-5.16A57.29,57.29,0,0,0,12.47,13.06Z"/></g></g></svg>