<svg xmlns="http://www.w3.org/2000/svg" viewBox="0 0 36.87 49.74"><defs><style>.cls-1{fill:none;stroke:#fff;stroke-linecap:round;stroke-linejoin:round;stroke-width:3px;}</style></defs><title>Bullyng@PYPGrandes</title><g id="Capa_2" data-name="Capa 2"><g id="Capa_1-2" data-name="Capa 1"><path class="cls-1" d="M8.74,15.63a6.2,6.2,0,0,0-6,2.86,7.07,7.07,0,0,0-1,3.37,27.07,27.07,0,0,0,.68,10.86A38.35,38.35,0,0,0,9.14,45.41a6,6,0,0,0,2.8,2,5.87,5.87,0,0,0,7.15-2.24c1.35-2,2.65-4,4-6,.15-.23.31-.46.54-.77.17.37.29.63.4.89.88,2.05,1.73,4.1,2.62,6.13A4.56,4.56,0,1,0,35,41.77c-.74-1.77-1.51-3.55-2.26-5.32l-.56-1.25m-3.74.35a3.93,3.93,0,0,0,4-5.06,4,4,0,0,0-3.76-2.78l-7.21-.85c-1.07-.12-2.14-.19-3.2-.31a1.41,1.41,0,0,1-1.15-.72c-1.4-2.4-2.83-4.78-4.26-7.16a3.92,3.92,0,1,0-6.73,4l2.48,4.15c1,1.6,2,3.18,2.86,4.81A4.42,4.42,0,0,0,15.22,34c2,.18,3.91.45,5.87.68ZM17.91,1.5A8.47,8.47,0,1,0,26.39,10,8.48,8.48,0,0,0,17.91,1.5ZM28.45,26.71a4.09,4.09,0,0,0-3.35-2.56A4.1,4.1,0,0,0,21,25.81"/><path class="cls-1" d="M31.88,35.34a2.37,2.37,0,0,1,.28-.14l.56,1.25c.75,1.77,1.52,3.55,2.26,5.32a4.56,4.56,0,1,1-8.36,3.62c-.89-2-1.74-4.08-2.62-6.13-.11-.26-.23-.52-.4-.89-.23.31-.39.54-.54.77-1.32,2-2.62,4-4,6a5.87,5.87,0,0,1-7.15,2.24,6,6,0,0,1-2.8-2A38.35,38.35,0,0,1,2.43,32.72a27.07,27.07,0,0,1-.68-10.86,7.07,7.07,0,0,1,1-3.37,6.2,6.2,0,0,1,6-2.86"/><path class="cls-1" d="M28.42,35.55l-7.33-.86c-2-.23-3.91-.5-5.87-.68a4.42,4.42,0,0,1-3.75-2.39c-.91-1.63-1.9-3.21-2.86-4.81L6.13,22.66a3.92,3.92,0,1,1,6.73-4c1.43,2.38,2.86,4.76,4.26,7.16a1.41,1.41,0,0,0,1.15.72c1.06.12,2.13.19,3.2.31l7.21.85a4,4,0,0,1,3.76,2.78A3.93,3.93,0,0,1,28.42,35.55Z"/><path class="cls-1" d="M17.91,1.5A8.47,8.47,0,1,1,9.46,9.94,8.46,8.46,0,0,1,17.91,1.5Z"/></g></g></svg>