<svg xmlns="http://www.w3.org/2000/svg" viewBox="0 0 49.73 47.18"><defs><style>.cls-1{fill:none;stroke:#fff;stroke-linecap:round;stroke-linejoin:round;stroke-width:3px;}</style></defs><title>embarazos_prematuros@PYPGrandes</title><g id="Capa_2" data-name="Capa 2"><g id="Capa_1-2" data-name="Capa 1"><path class="cls-1" d="M35.14,26.34a7.77,7.77,0,0,0-2.89-1.52c-1.66-.41-4,0-5.05,0s-2.12-1.51-2.34-5.1a60,60,0,0,1-.21-9.23c.11-7.44,8.42-8.77,8.42-8.77C36.38,1.21,42,1,46.71,8s-2.89,14.61-4,15.66-.31,7.77-.83,8.59c-.83,1.31-1.65,4.27-7.71,8.68s-14.88,5-16.95,4.69a13.41,13.41,0,0,1-9.17-7.86c-2-5.09,6.28-11,6.28-11L9.93,28.4c-1.1.42-6.48,1.8-7.86,0s0-7.85,1.24-9.64,4-2.07,4-2.07,1.79,2.07,1.38,3.72-.63,2.7-.63,2.7,8.07-7.24,10.27-6,4.13,3.17,3.86,6.34a44.11,44.11,0,0,1-1.93,8"/><path class="cls-1" d="M29.49,32.81s-4.13-.4-6.2-2.48-1-5.06-1.1-6.88,2.46-5,2.46-5"/><path class="cls-1" d="M10.37,1.92s-.33,6.21,1,9,6.93,6.24,6.93,6.24"/></g></g></svg>