<svg xmlns="http://www.w3.org/2000/svg" viewBox="0 0 21.21 35.09"><defs><style>.cls-1,.cls-2{fill:none;stroke:#fff;stroke-linecap:round;}.cls-1{stroke-miterlimit:10;stroke-width:1.93px;}.cls-2{stroke-linejoin:round;stroke-width:2.12px;}</style></defs><title>entregados@PYPGrandes</title><g id="Capa_2" data-name="Capa 2"><g id="Capa_1-2" data-name="Capa 1"><path class="cls-1" d="M17.64,1H3.4A2.45,2.45,0,0,0,1,3.4V31.68A2.44,2.44,0,0,0,3.4,34.12H17.8a2.44,2.44,0,0,0,2.44-2.44v-5L20,3.35A2.4,2.4,0,0,0,17.64,1Zm-16.45,25L20,26.16M1.19,4.84,20,5.07"/><path class="cls-1" d="M12.1,30.08a1.5,1.5,0,1,1-1.5-1.51A1.5,1.5,0,0,1,12.1,30.08Z"/><polyline class="cls-2" points="14.88 12.15 7.33 18.54 7.33 14.05"/></g></g></svg>