<svg xmlns="http://www.w3.org/2000/svg" viewBox="0 0 57.12 43.07"><defs><style>.cls-1{fill:#fff;stroke-miterlimit:10;stroke-width:1.14px;}.cls-1,.cls-2{stroke:#fff;fill-rule:evenodd;}.cls-2{fill:none;stroke-linecap:round;stroke-linejoin:round;stroke-width:3.41px;}</style></defs><title>hipertension@PYPGrandes</title><g id="Capa_2" data-name="Capa 2"><g id="Capa_1-2" data-name="Capa 1"><path class="cls-1" d="M17.66,27.26a13.59,13.59,0,1,1,2.61-1c-.18.11-.37.19-.55.3Zm-4-13.79L9.2,11.78l3.68,3.08a1.66,1.66,0,0,0,.81,1.55A1.72,1.72,0,0,0,16,15.78a1.68,1.68,0,0,0-2.35-2.31Zm8.16,6.87h0A.51.51,0,0,0,22,21l1.47.81a11.88,11.88,0,0,1-3.2,2.72s0-.11-.07-.15l-.78-1.54a.67.67,0,0,0-.92-.29h0a.68.68,0,0,0-.29.92L19,25.05a.37.37,0,0,1,.11.15,12.62,12.62,0,0,1-3.93,1,.11.11,0,0,1,0-.07l.23-1.8a.5.5,0,0,0-.48-.52h0a.58.58,0,0,0-.55.48l-.23,1.8v.15a12.17,12.17,0,0,1-3.05-.41l.52-1.62a.74.74,0,0,0-.48-.95.76.76,0,0,0-.92.48l-.55,1.65a12.18,12.18,0,0,1-3-1.76l1.14-1.33a.49.49,0,0,0-.08-.7.52.52,0,0,0-.7,0L5.85,23a14.52,14.52,0,0,1-2.13-2.68l1.55-.77a.78.78,0,0,0,.33-1,.74.74,0,0,0-1-.33l-1.54.77a12.5,12.5,0,0,1-.92-3.38l1.73-.15c.07,0,.15,0,.18,0a.52.52,0,0,0,.3-.48.53.53,0,0,0-.55-.47l-1.73.14a13.45,13.45,0,0,1,.4-3.42l1.62.55a.82.82,0,0,0,1-.47.74.74,0,0,0-.48-1L3,9.68a13.34,13.34,0,0,1,1.76-3L6,7.77a.5.5,0,0,0,.55.07l.19-.11A.54.54,0,0,0,6.66,7L5.38,5.89A11.59,11.59,0,0,1,8,3.76L8.8,5.27a.79.79,0,0,0,1,.33.76.76,0,0,0,.33-1L9.38,3.06a12.57,12.57,0,0,1,3.42-.92l.12,1.73a.49.49,0,0,0,.55.48,1.27,1.27,0,0,1,.18,0,.56.56,0,0,0,.26-.51L13.8,2.1a12,12,0,0,1,3.38.37l-.51,1.62a.73.73,0,0,0,.47,1,.76.76,0,0,0,.56,0,.79.79,0,0,0,.4-.44L18.61,3a11.81,11.81,0,0,1,3.06,1.77L20.53,6a.53.53,0,0,0,.07.74.6.6,0,0,0,.55.07s.11-.07.15-.15l1.14-1.28a11.76,11.76,0,0,1,2.13,2.68L23,8.83a.74.74,0,0,0-.33,1,.79.79,0,0,0,1,.33l1.5-.78a12.2,12.2,0,0,1,.92,3.43l-1.73.11a.51.51,0,0,0-.47.55.5.5,0,0,0,.55.44l1.73-.11a11.69,11.69,0,0,1-.41,3.38l-1.62-.51a.73.73,0,0,0-.95.47.81.81,0,0,0,.48,1l1.61.51A12.15,12.15,0,0,1,24.09,21l-1.5-.84a.56.56,0,0,0-.74.14Z"/><path class="cls-2" d="M25.06,22.23c.69,1,3.81,8.94,4.29,10h0l.35.77a3.47,3.47,0,0,0,4.65,1.21,3.37,3.37,0,0,0,1.5-2.06,3.16,3.16,0,0,0-.35-2.51l-.8-1.36c-.25-.45-.51-.88-.78-1.36l0,0h0a4.82,4.82,0,0,1-.5-3.6,4.77,4.77,0,0,1,2.19-2.91h0a4.62,4.62,0,0,1,3.57-.5,4.71,4.71,0,0,1,2.91,2.16l0,0,2.59,4.41"/><path class="cls-2" d="M46.25,26.88a.63.63,0,0,1,.26-.07h0a.47.47,0,0,1,.33,0h0a.54.54,0,0,1,.33.11h0a1,1,0,0,1,.26.29h0l.4.59a6.38,6.38,0,0,1,3.17,1h0a10.09,10.09,0,0,1,2.9,3c1.8,2.94,1.84,5.52,1,7.25a4.49,4.49,0,0,1-1.55,1.65,4.09,4.09,0,0,1-2.17.63c-2,0-4.3-1.14-6.1-4.09a9.43,9.43,0,0,1-1.4-4.08h0a5.78,5.78,0,0,1,.63-3.34l-.3-.48a1.92,1.92,0,0,1-.15-.37h0a1.17,1.17,0,0,1,0-.37h0a1.79,1.79,0,0,1,.18-.33h0a.88.88,0,0,1,.26-.25h0l.19-.11"/></g></g></svg>