<svg xmlns="http://www.w3.org/2000/svg" viewBox="0 0 34.53 49.89"><defs><style>.cls-1,.cls-2{fill:none;stroke:#fff;}.cls-1{stroke-miterlimit:10;}.cls-2{stroke-linecap:round;stroke-linejoin:round;stroke-width:3px;}</style></defs><title>mujeres embaradas@PYPGrandes</title><g id="Capa_2" data-name="Capa 2"><g id="Capa_1-2" data-name="Capa 1"><path class="cls-1" d="M30.3,16.84a.49.49,0,0,0,.44.2,5.57,5.57,0,0,0,2.78-1.15A1.4,1.4,0,0,0,33,13.45s-.1,0-.14,0c-.5.14-.75-.14-1.05-.48a1.21,1.21,0,0,0-1.45-.28A1.42,1.42,0,0,0,29.45,14a1.33,1.33,0,0,0,0,.2A6.12,6.12,0,0,0,30.3,16.84Zm-2.84-9a.42.42,0,0,1-.33,0A1.43,1.43,0,0,0,25.4,8a1.4,1.4,0,0,0-.26,1.71,5.66,5.66,0,0,0,2.07,2.11.53.53,0,0,0,.49,0,5.64,5.64,0,0,0,1.93-2.39,1.46,1.46,0,0,0-1.32-2C28,7.55,27.75,7.68,27.46,7.79ZM23.22,20.42a.5.5,0,0,0,.44.2,5.6,5.6,0,0,0,2.74-1.11,1.38,1.38,0,0,0-.26-2.37,2.92,2.92,0,0,0-.8-.11c-.1,0-.26-.05-.3-.12a1.41,1.41,0,0,0-2.66.74v.09A5.78,5.78,0,0,0,23.22,20.42Z"/><path class="cls-2" d="M2.17,38.29c-.44.07-.67-.12-.67-.56s0-.88,0-1.32q.41-9,.82-18.06a6.76,6.76,0,0,1,1.82-4.54A4.91,4.91,0,0,1,10.29,13a7,7,0,0,1,2.88,3.67.51.51,0,0,0,.45.36c.46.1.93.19,1.38.33a9.06,9.06,0,0,1,6.22,8.13,9,9,0,0,1-1.9,6,.59.59,0,0,0-.11.69c.32.78.62,1.57.92,2.36.18.49,0,.75-.49.84Z"/><path class="cls-2" d="M8.61,37.83V46a2.44,2.44,0,0,0,2.44,2.44h0A2.43,2.43,0,0,0,13.48,46V37.11"/><polyline class="cls-2" points="8.05 19.15 6.93 26.98 15.9 26.98"/><circle class="cls-2" cx="7.83" cy="6.92" r="5.42"/></g></g></svg>