<svg xmlns="http://www.w3.org/2000/svg" viewBox="0 0 42.89 49.56"><defs><style>.cls-1{fill:#fff;}.cls-2{fill:none;stroke:#fff;stroke-linejoin:round;stroke-width:3px;}</style></defs><title>nutricion@PYPGrandes</title><g id="Capa_2" data-name="Capa 2"><g id="Capa_1-2" data-name="Capa 1"><path class="cls-1" d="M19.2,15a15.38,15.38,0,0,1,1.29,6.12c0,1.84,0,3.68,0,5.52a27.07,27.07,0,0,0,3.32.77c0-2,0-4,0-6a18.22,18.22,0,0,0-1-6.31C22,13,21.08,11,20.2,9c-.46-1.09-.93-2.18-1.42-3.26a1.66,1.66,0,1,0-3,1.4C16.91,9.74,18.07,12.36,19.2,15Z"/><path class="cls-1" d="M19.83,45.79a2,2,0,0,1-.87.39,4.73,4.73,0,0,1-.75,0H5.63a4.29,4.29,0,0,1-.62,0,1.76,1.76,0,0,1-1.68-1.89q0-11.56,0-23.14a13.27,13.27,0,0,1,.93-5C5.14,14,6.14,12,7.09,9.84,7.52,8.89,8,8,8.39,7A1.65,1.65,0,0,0,7.34,4.68a1.67,1.67,0,0,0-2,1C4.11,8.37,2.86,11,1.66,13.7A18.62,18.62,0,0,0,0,21.34V32.56q0,5.89,0,11.79a5.7,5.7,0,0,0,.16,1.43,5.21,5.21,0,0,0,5.15,3.77c4.4,0,8.8,0,13.2,0a5.47,5.47,0,0,0,3.56-1.35C21.29,47.44,20.54,46.63,19.83,45.79Z"/><path class="cls-1" d="M12,3.32c-1.89,0-3.78,0-5.67,0A1.66,1.66,0,1,1,6.13,0h11.7a1.66,1.66,0,0,1,1.52,2.49,1.57,1.57,0,0,1-1.41.82c-.62,0-1.24,0-1.85,0Z"/><path class="cls-1" d="M21.33,28a4.32,4.32,0,0,1,1.09.15c1,.28,2.16.63,3.48,1.09a7.44,7.44,0,0,0,5.07,0c1-.34,2.23-.77,3.49-1.1A4.55,4.55,0,0,1,35.58,28a3.1,3.1,0,0,1,1.47.35,4.81,4.81,0,0,1,1.42,1.24,5.73,5.73,0,0,1,1.42,3.83,12.92,12.92,0,0,1-.73,3.76,24.37,24.37,0,0,1-3,6.63,7.3,7.3,0,0,1-2,2.05,2.15,2.15,0,0,1-1.33.33l-.42,0a5.43,5.43,0,0,1-2.15-.53,4.05,4.05,0,0,0-1.86-.45,4.32,4.32,0,0,0-2,.5,4.57,4.57,0,0,1-2.25.49c-.31,0-.63,0-1-.05a2.46,2.46,0,0,1-1.11-.66,11.07,11.07,0,0,1-2.53-3.55,27.45,27.45,0,0,1-2.47-7.1,5.76,5.76,0,0,1,.77-4.53,4.87,4.87,0,0,1,2.33-2.11,3.38,3.38,0,0,1,1.1-.18m0-3a6.32,6.32,0,0,0-2.09.35,7.71,7.71,0,0,0-3.84,3.28,8.79,8.79,0,0,0-1.22,6.75,30.63,30.63,0,0,0,2.73,7.89,14.31,14.31,0,0,0,3.25,4.46,5,5,0,0,0,2.78,1.38,11.15,11.15,0,0,0,1.29.07,7.69,7.69,0,0,0,3.65-.83,1.19,1.19,0,0,1,.59-.16,1.11,1.11,0,0,1,.49.12,8.45,8.45,0,0,0,3.31.85l.63,0a5.25,5.25,0,0,0,3-.84,10.19,10.19,0,0,0,2.76-2.87A27.69,27.69,0,0,0,42,38.06a15.73,15.73,0,0,0,.86-4.65,8.69,8.69,0,0,0-2.12-5.76,7.73,7.73,0,0,0-2.35-2A6.15,6.15,0,0,0,35.58,25a7.57,7.57,0,0,0-1.87.25c-1.26.32-2.51.73-3.74,1.17a4.56,4.56,0,0,1-1.52.27,4.7,4.7,0,0,1-1.55-.28c-1.22-.43-2.46-.83-3.71-1.16A7.43,7.43,0,0,0,21.33,25Z"/><path class="cls-2" d="M36.3,16.78a7.67,7.67,0,0,1-3.78,6.27,7.33,7.33,0,0,1-3.07,1A5.64,5.64,0,0,1,28.09,24a1.6,1.6,0,0,1-1.38-1.36A5,5,0,0,1,27,19.84a7.71,7.71,0,0,1,6.55-5.35,4.25,4.25,0,0,1,1.18,0,1.7,1.7,0,0,1,1.56,1.67C36.29,16.39,36.29,16.58,36.3,16.78Z"/></g></g></svg>