<svg xmlns="http://www.w3.org/2000/svg" viewBox="0 0 49.57 42.6"><defs><style>.cls-1,.cls-2,.cls-3{fill:none;stroke:#fff;stroke-linecap:round;stroke-linejoin:round;stroke-width:3px;}.cls-2{stroke-dasharray:0 3.89;}.cls-3{stroke-dasharray:0 3.66;}</style></defs><title>otros@PYPGrandes</title><g id="Capa_2" data-name="Capa 2"><g id="Capa_1-2" data-name="Capa 1"><path class="cls-1" d="M27.36,6.54H20.72A2.52,2.52,0,0,1,18.19,4h0A2.52,2.52,0,0,1,20.72,1.5H32.63l6.11,6.05h3.49V17L35,16.84l-7.89-6.33a2.13,2.13,0,0,1-.39-2.89h0a2.12,2.12,0,0,1,2.92-.5l4.51,3.12"/><rect class="cls-1" x="42.23" y="6.07" width="5.84" height="12.49"/><path class="cls-1" d="M22.21,36.06h6.65a2.52,2.52,0,0,1,2.52,2.52h0a2.52,2.52,0,0,1-2.52,2.52H17l-6.11-6.05H7.34V25.6l7.23.16,7.89,6.33A2.12,2.12,0,0,1,22.85,35h0a2.11,2.11,0,0,1-2.91.5l-4.52-3.12"/><rect class="cls-1" x="1.5" y="24.04" width="5.84" height="12.49" transform="translate(8.84 60.56) rotate(180)"/><line class="cls-1" x1="38.26" y1="17.33" x2="38.26" y2="17.33"/><path class="cls-2" d="M38.67,21.19l0,.42A13.57,13.57,0,0,1,32,32.41"/><line class="cls-1" x1="30.22" y1="33.27" x2="30.22" y2="33.27"/><line class="cls-1" x1="11.41" y1="23.65" x2="11.41" y2="23.65"/><path class="cls-3" d="M11.23,20A13.55,13.55,0,0,1,17.74,9.52"/><line class="cls-1" x1="19.36" y1="8.68" x2="19.36" y2="8.68"/><path class="cls-1" d="M26.67,19.09l-2.09,1.59-2.09-1.59a2.2,2.2,0,0,0-2.89.19h0a2.21,2.21,0,0,0,0,3.12l2.06,2.06,2.92,2.92,2.92-2.92,2.06-2.06a2.21,2.21,0,0,0,0-3.12h0A2.2,2.2,0,0,0,26.67,19.09Z"/></g></g></svg>