<svg xmlns="http://www.w3.org/2000/svg" viewBox="0 0 51.99 46.69"><defs><style>.cls-1{fill:#5f90c6;stroke-miterlimit:10;stroke-width:2.14px;}.cls-1,.cls-2{stroke:#fff;}.cls-2{fill:none;stroke-linecap:round;stroke-linejoin:round;stroke-width:3.21px;}</style></defs><title>Violencia_domestica@PYPGrandes</title><g id="Capa_2" data-name="Capa 2"><g id="Capa_1-2" data-name="Capa 1"><path class="cls-1" d="M21.09,40.69a4.06,4.06,0,0,1-2.94.32,4,4,0,0,1-2.33-1.81c-.12.14-.22.25-.3.36a3.86,3.86,0,0,1-7-2.29c0-3.49,0-7,0-10.46A3.42,3.42,0,0,1,9.76,24a3.8,3.8,0,0,1,5.17-.1c.55.44.56.43,1-.18A3.77,3.77,0,0,1,19.56,22a4.33,4.33,0,0,1,2,.71.49.49,0,0,0,.8-.25,5.26,5.26,0,0,1,.56-1.08,3.9,3.9,0,0,1,6.47.37l.15.29c.38.77.48.78,1.2.36a3.69,3.69,0,0,1,3.42-.3,3.81,3.81,0,0,1,2.5,3.86c0,3.62,0,7.24,0,10.87a4.12,4.12,0,0,1-.88,2.61,1.07,1.07,0,0,0-.2.62c.14,4-1.33,5.64-3.48,5.59-3-.06-6.09,0-9.13,0-1.25,0-1.84-2.73-1.84-4Zm14.59-9.38V25.72A2.88,2.88,0,0,0,34.1,23a2.8,2.8,0,0,0-3.11.28,1.32,1.32,0,0,1-2.11-.52,4.26,4.26,0,0,0-1-1.39,3,3,0,0,0-4.71,1.37,1.41,1.41,0,0,1-2.26.67A2.63,2.63,0,0,0,18.5,23a2.71,2.71,0,0,0-1.91,1.51,1.32,1.32,0,0,1-2.08.4,3.78,3.78,0,0,0-1.24-.77,2.71,2.71,0,0,0-2.82.59,3.13,3.13,0,0,0-1,2.41c0,3,0,6,0,9,0,.46,0,.91,0,1.36a2.91,2.91,0,0,0,5.77.42,2.44,2.44,0,0,1,.09-.62c.08-.17.27-.37.42-.38s.34.19.46.33,0,.27.05.4a2.86,2.86,0,0,0,2,2.5,2.75,2.75,0,0,0,3-.8,2.94,2.94,0,0,0,.8-1.93c0-.29.13-.51.45-.52s.47.22.5.53a1.09,1.09,0,0,0,0,.18,2.91,2.91,0,0,0,5.79.12c0-.12,0-.27.07-.36s.27-.31.42-.32a.71.71,0,0,1,.44.3c.09.11.08.29.12.43a2.92,2.92,0,0,0,3.74,2,3,3,0,0,0,2-2.86C35.69,35,35.68,33.16,35.68,31.31ZM22.62,39.25c-.54.5-.58.61-.58,1.22,0,.35,0,.7,0,1.05,0,.81.19,3.14,1,3.14h9.12a4.9,4.9,0,0,0,.77-.08c.92-.21,1.6-1,1.6-4.16a4,4,0,0,1-5-1.35A4,4,0,0,1,22.62,39.25Z"/><path class="cls-1" d="M23.05,32.66v5.71c0,.34-.09.62-.49.62s-.45-.3-.45-.61c0-1.44,0-6.45,0-7.89,0-.33.08-.63.49-.62s.45.29.45.61Z"/><path class="cls-1" d="M30,32.76v5.71c0,.32-.08.59-.45.6s-.5-.27-.5-.6v-8c0-.33.11-.61.5-.6s.45.28.45.6Z"/><path class="cls-1" d="M15.33,32.35v-1.9c0-.33.12-.59.49-.58s.46.25.46.56v7.44c0,.32-.15.54-.47.55s-.48-.22-.48-.54Z"/><line class="cls-2" x1="5.73" y1="22.58" x2="1.61" y2="20.28"/><line class="cls-2" x1="6.72" y1="15.43" x2="9.47" y2="19.68"/><line class="cls-2" x1="15.15" y1="14.72" x2="13.98" y2="19.12"/><polyline class="cls-2" points="22.86 11.61 36.1 1.61 50.39 11.61"/><polyline class="cls-2" points="35.68 24.02 46.11 24.02 46.11 14.09"/><line class="cls-2" x1="27.13" y1="13.81" x2="27.13" y2="19.95"/></g></g></svg>