<svg xmlns="http://www.w3.org/2000/svg" viewBox="0 0 47.2 50.14"><defs><style>.cls-1{fill:none;stroke:#fff;stroke-linecap:round;stroke-linejoin:round;stroke-width:3px;}</style></defs><title>volencia mujer@PYPGrandes</title><g id="Capa_2" data-name="Capa 2"><g id="Capa_1-2" data-name="Capa 1"><path class="cls-1" d="M15,10a4.69,4.69,0,0,1,4.25,2.81,4.68,4.68,0,0,1-.53,5.1c-1.28,1.71-2.6,3.38-3.9,5.06l-2.42,3.13c-.41.54-.84,1.07-1.24,1.62a1.2,1.2,0,0,0-.21.57q-.36,8-.71,16c0,.34,0,.68,0,1a3,3,0,0,1-5.93.11c-.26-3.63-.47-7.27-.78-10.89a18.2,18.2,0,0,0-.67-2.88c-.38-1.49-.8-3-1.14-4.45a4.51,4.51,0,0,1,.81-3.75C3,22.58,13,9.85,15,10Z"/><path class="cls-1" d="M33.5,48.37s-9,0-10.15,0a4.51,4.51,0,0,1-4.44-4.91,32.24,32.24,0,0,1,3.53-12.2,9,9,0,0,1,3.08-3.44c.8-.49,2.72-1.42,4.4-.17,3,2-.47,10.58-.72,11.42A39.52,39.52,0,0,0,34.13,37Zm.63-8.13L38.49,38,45,44.77a2.24,2.24,0,0,1-.77,3.7,2.16,2.16,0,0,1-2.45-.54l-4.19-4.19-3.37,2.17"/><path class="cls-1" d="M22.9,1.5a5.24,5.24,0,1,1-5.22,5.25A5.23,5.23,0,0,1,22.9,1.5Z"/><path class="cls-1" d="M34.36,18.81a5.23,5.23,0,1,1-5.22,5.25A5.23,5.23,0,0,1,34.36,18.81Z"/><path class="cls-1" d="M32.26,14.53a2.14,2.14,0,1,1-2.13,2.15A2.14,2.14,0,0,1,32.26,14.53Z"/><line class="cls-1" x1="18.02" y1="27.73" x2="14.55" y2="16.2"/></g></g></svg>