<svg xmlns="http://www.w3.org/2000/svg" viewBox="0 0 31.66 52.73"><defs><style>.cls-1{fill:none;stroke:#69f;stroke-linecap:round;stroke-linejoin:round;stroke-width:2.4px;}</style></defs><title>Recurso 2@App</title><g id="Capa_2" data-name="Capa 2"><g id="Capa_1-2" data-name="Capa 1"><path class="cls-1" d="M4.9,1.2A3.7,3.7,0,0,0,1.2,4.9V47.82a3.71,3.71,0,0,0,3.7,3.71H26.76a3.72,3.72,0,0,0,3.7-3.71V4.24a3,3,0,0,0-3-3ZM1.54,39.08l28.58.35M1.54,7.08l28.92.08"/><path class="cls-1" d="M18.11,45.38a2.28,2.28,0,1,1-2.28-2.28,2.28,2.28,0,0,1,2.28,2.28"/><line class="cls-1" x1="7.18" y1="16.1" x2="24.48" y2="16.1"/><line class="cls-1" x1="7.18" y1="30.09" x2="24.48" y2="30.09"/><line class="cls-1" x1="7.18" y1="23.09" x2="24.48" y2="23.09"/></g></g></svg>
