<svg xmlns="http://www.w3.org/2000/svg" viewBox="0 0 146.04 146.04"><defs><style>.cls-1{fill:#69f;}.cls-2{fill:none;stroke:#69f;stroke-linecap:round;stroke-linejoin:round;stroke-width:8.04px;}</style></defs><title>ayuda_2@pyp</title><g id="Capa_2" data-name="Capa 2"><g id="Capa_1-2" data-name="Capa 1"><path class="cls-1" d="M71.55,78.65a17.44,17.44,0,0,1,3.13-4.87q1.84-2,4.87-4.74a39.53,39.53,0,0,0,5.59-5.73,9.46,9.46,0,0,0,1.8-5.82,9,9,0,0,0-3.6-7.44q-3.6-2.79-9.94-2.79-11.08,0-17,7.48l-6.92-4.92A26.06,26.06,0,0,1,59.71,42a35.19,35.19,0,0,1,14.35-2.75q10.32,0,16.38,4.5A14.55,14.55,0,0,1,96.5,56.07a17.27,17.27,0,0,1-1.27,6.86,18,18,0,0,1-3.08,5q-1.8,2-4.83,4.73a38.39,38.39,0,0,0-5.73,6.16,11.13,11.13,0,0,0-1.85,6.53H70.27A16.45,16.45,0,0,1,71.55,78.65Zm-.85,26.43a6.18,6.18,0,0,1,0-8.62,6,6,0,0,1,4.4-1.75,5.82,5.82,0,0,1,4.36,1.75,5.92,5.92,0,0,1,1.7,4.31,6,6,0,0,1-6.06,6.06A6,6,0,0,1,70.7,105.08Z"/><circle class="cls-2" cx="73.02" cy="73.02" r="69"/></g></g></svg>
