<svg xmlns="http://www.w3.org/2000/svg" viewBox="0 0 63 46.21"><defs><style>.cls-1{fill:#4399ff;}</style></defs><title>Teleconsulta</title><g id="Capa_2" data-name="Capa 2"><g id="Layer_1" data-name="Layer 1"><path class="cls-1" d="M63,38.28A1.92,1.92,0,0,0,63,38a1,1,0,0,0-.86-.86l-.15,0H60.28V36.9c0-.11,0-.21,0-.31a2.81,2.81,0,0,1,0-.29V16.84c0-3.15,0-6.4,0-9.6h0V5.86A5.52,5.52,0,0,0,57.42.7,6.05,6.05,0,0,0,54.29,0H8.71A6.05,6.05,0,0,0,5.58.7,5.5,5.5,0,0,0,2.77,5.86V7.24h0c0,3.2,0,6.45,0,9.6V36.3a2.81,2.81,0,0,1,0,.29c0,.1,0,.2,0,.31v.24H1l-.15,0A1,1,0,0,0,0,38c0,.08,0,.16,0,.24,0,.28,0,.56,0,.83,0,.1,0,.2,0,.3s0,.46.06.69,0,.26.06.38.06.27.09.41A6.74,6.74,0,0,0,.59,42v0c.1.22.2.44.32.65l0,0A6.77,6.77,0,0,0,2.11,44.2a4.89,4.89,0,0,0,.41.37l.3.24.34.22c.14.1.27.2.42.29a6.53,6.53,0,0,0,2.72.83,6.51,6.51,0,0,0,.88.06H55.81a8.19,8.19,0,0,0,3.61-.89c.15-.09.28-.19.42-.29a3.78,3.78,0,0,0,.33-.22l.31-.24c.14-.12.28-.24.41-.37a6.77,6.77,0,0,0,1.16-1.47l0,0c.11-.21.22-.43.32-.65v0a6.74,6.74,0,0,0,.36-1.1c0-.14.07-.27.09-.41s0-.25.06-.38,0-.46.06-.69,0-.2,0-.3C63,38.84,63,38.56,63,38.28ZM4.91,5.56A3.29,3.29,0,0,1,8.2,2.13c5.82,0,11.73,0,17.46,0H37.34c5.72,0,11.64,0,17.46,0a3.29,3.29,0,0,1,3.29,3.43V7.24h0V37.09H4.93V7.24h0C4.9,6.66,4.91,6.09,4.91,5.56ZM60.75,40.15s0,.06,0,.08a1.63,1.63,0,0,1-.07.3,4.78,4.78,0,0,1-2.16,2.85.91.91,0,0,1-.13.08l-.1,0a4.91,4.91,0,0,1-.57.25,6,6,0,0,1-1.89.29H7.18a6,6,0,0,1-1.89-.29,4.91,4.91,0,0,1-.57-.25l-.11,0-.12-.08a4.78,4.78,0,0,1-2.16-2.85,1.63,1.63,0,0,1-.07-.3s0,0,0-.08a3.19,3.19,0,0,1,0-.62l0-.22h58.5l0,.22A3.19,3.19,0,0,1,60.75,40.15Z"/><path class="cls-1" d="M35.67,27.77H19.41a1,1,0,0,1-1-1V14.58a1,1,0,0,1,1-1H35.67a1,1,0,0,1,1,1V26.77A1,1,0,0,1,35.67,27.77Zm-15.26-2H34.67V15.58H20.41Z"/><path class="cls-1" d="M42.69,27.73a1,1,0,0,1-.41-.09l-6.66-3a1,1,0,0,1-.59-.91V18a1,1,0,0,1,.59-.91l6.66-3a1,1,0,0,1,.95.07,1,1,0,0,1,.46.84V26.73a1,1,0,0,1-.46.84A1,1,0,0,1,42.69,27.73ZM37,23.08l4.66,2.11v-8.6L37,18.69Z"/></g></g></svg>